<svg width="633" height="509" viewBox="0 0 633 509" fill="none" xmlns="http://www.w3.org/2000/svg">
<path d="M615.94 223.816C612.756 229.213 572.446 256.524 547.994 260.566C543.263 261.348 538.096 261.617 533.986 259.146C531.558 257.686 529.748 255.41 528.03 253.158C524.1 248.01 520.352 242.723 516.793 237.311C514.923 234.467 513.068 231.499 512.433 228.155C510.75 219.3 517.888 211.347 524.942 205.737C541.157 192.84 560.143 183.444 580.231 178.376C583.787 177.479 587.558 176.719 591.081 177.738C596.799 179.392 600.218 185.178 602.399 190.716C604.581 196.254 606.283 202.312 610.643 206.363C611.639 207.288 619.124 218.419 615.94 223.816Z" fill="white"/>
<path fill-rule="evenodd" clip-rule="evenodd" d="M399.342 459.104C360.22 465.794 378.866 437.361 384.261 401.772C393.126 343.293 404.058 254.425 404.058 254.425C404.058 254.425 411.187 389.839 411.187 422.811C411.187 455.784 404.057 458.298 399.342 459.104Z" fill="white"/>
<path d="M357.541 426.886C358.539 436.303 359.592 445.919 363.594 454.501C361.41 435.067 359.227 415.632 357.043 396.198C356.774 393.798 356.854 390.743 359.061 389.764C360.93 411.709 363.715 433.576 367.408 455.289C367.846 457.867 363.974 459.34 361.799 457.888C359.625 456.436 358.929 453.609 358.435 451.041C354.831 432.331 352.85 413.309 352.521 394.258C347.933 395.161 344.716 399.609 343.788 404.192C342.86 408.774 343.754 413.507 344.648 418.097C347.525 432.87 350.402 447.643 353.279 462.416C354.625 469.326 355.971 476.465 354.486 483.347C348.776 457.276 344.185 430.961 340.731 404.497C296.917 431.289 240.462 436.271 192.633 417.566C182.187 413.481 171.812 408.068 164.913 399.224C159.478 392.258 156.578 383.609 155.058 374.905C149.662 343.992 160.72 312.46 175.729 284.902C181.424 274.445 187.91 263.554 187.45 251.656C187.292 247.56 186.409 243.025 188.801 239.695C189.139 240.312 173.141 125.872 179.559 100.558C195.009 39.6171 245.201 31.3639 277.337 32.1156C298.899 32.6199 435.573 59.7816 455.32 96.7185C481.273 145.264 475.763 186.079 471.154 212.991C469.782 221.005 404.076 253.834 404.058 254C400.302 288.92 375.094 365.011 353.953 393.057C355.149 404.333 356.345 415.61 357.541 426.886Z" fill="white"/>
<path fill-rule="evenodd" clip-rule="evenodd" d="M42.0617 284.798C29.7396 279.879 15.0553 281.337 3.94613 288.584C2.87064 289.286 1.32436 288.504 0.791945 287.336C0.259527 286.169 0.458675 284.811 0.731015 283.558C4.27906 267.23 18.4134 254.737 34.1321 248.996C49.8508 243.254 67.0444 243.238 83.7535 244.22C85.4114 244.317 87.1443 244.446 88.5586 245.316C89.9728 246.185 90.9244 248.043 90.2195 249.544C83.6465 263.541 78.6952 278.295 75.4956 293.42C74.9768 295.872 72.4355 297.5 69.9327 297.704C67.4299 297.909 64.9776 296.985 62.7063 295.916C55.6277 292.584 49.3282 287.698 42.0617 284.798Z" fill="white"/>
<path fill-rule="evenodd" clip-rule="evenodd" d="M420.807 38.313C421.419 28.9465 420.713 19.495 418.716 10.3235L418.674 10.1281L418.674 10.1278C418.335 8.57704 417.986 6.98198 418.299 5.43003C418.989 1.99756 422.802 -0.0684994 426.302 0.00356041C429.803 0.0756202 433.045 1.74663 436.143 3.37849C450.999 11.2044 466.122 19.2278 477.819 31.2747C478.186 41.0275 475.887 50.652 473.618 60.1531L473.405 61.0461C463.933 100.757 456.176 140.878 450.164 181.258C449.588 185.128 448.495 189.694 444.824 191.049C442.191 192.021 439.129 190.779 437.259 188.686C435.388 186.593 434.494 183.814 433.87 181.077C432.331 174.325 432.145 167.267 433.328 160.443C434.051 156.27 435.274 152.211 436.497 148.151L436.497 148.15L436.497 148.15L436.497 148.149L436.497 148.149L436.497 148.149L436.498 148.148L436.498 148.148C437.595 144.504 438.693 140.858 439.431 137.129C440.168 133.399 440.54 129.608 440.9 125.823C442.817 105.696 444.443 85.5413 445.778 65.3672C445.967 62.5164 446.138 59.576 445.205 56.8759C443.544 52.0734 438.705 49.038 433.818 47.6463C432.976 47.4064 432.12 47.2024 431.265 46.9984C429.273 46.5236 427.283 46.0492 425.467 45.1237C422.87 43.8007 420.617 41.2212 420.807 38.313ZM429.884 37.5432C436.793 39.0009 443.544 41.2022 449.984 44.0967C451.281 44.6795 452.644 45.3618 453.345 46.5987C453.917 47.6091 453.95 48.8258 453.967 49.9867C454.169 63.622 454.212 77.2934 452.768 90.8535C451.903 98.9734 450.509 107.022 449.114 115.071C448.673 117.618 448.231 120.166 447.807 122.715C445.706 135.331 444.015 148.016 442.737 160.742C441.81 169.976 441.131 179.519 444.004 188.344C445.477 188.074 446.044 186.3 446.324 184.828L472.867 44.9203C473.511 41.5305 474.153 38.0258 473.395 34.6597C472.069 28.7666 466.838 24.669 461.795 21.3442C452.086 14.9437 441.752 9.49246 430.988 5.09346C430.093 15.8835 429.724 26.7172 429.884 37.5432ZM443.535 129.428C448.395 104.477 450.59 79.0086 450.072 53.5943C450.033 51.6748 449.93 49.6121 448.756 48.093C447.896 46.9798 446.581 46.3279 445.297 45.7528C440.475 43.593 435.406 41.9859 430.221 40.973C428.72 40.6798 426.514 40.9975 426.579 42.5253L445.217 50.227C446.311 50.6787 447.475 51.1896 448.093 52.1984C448.699 53.1877 448.64 54.4305 448.561 55.588L443.535 129.428ZM426.191 2.62545C424.655 1.60685 422.434 2.65685 421.579 4.28958C420.723 5.92231 420.853 7.87691 421.047 9.71012C421.332 12.3998 421.706 15.0909 422.081 17.7824C423.121 25.2497 424.161 32.7199 423.277 40.1717C424.687 40.6554 426.26 39.662 426.944 38.3378C427.628 37.0137 427.645 35.4584 427.648 33.9681L427.695 7.09618C427.698 5.45385 427.56 3.53293 426.191 2.62545ZM439.992 187.738C439.145 181.097 438.923 174.376 439.33 167.694C439.548 164.121 439.944 160.561 440.34 157.001L440.34 157.001C440.865 152.293 441.389 147.587 441.498 142.854C437.627 154.375 436.166 166.7 437.234 178.808C437.512 181.957 438.028 185.259 439.992 187.738ZM442.122 136.048C442.745 135.769 443.006 134.894 442.639 134.319C442.006 134.63 441.738 135.513 442.089 136.125L442.122 136.048ZM436.334 78.3439C405.528 59.3455 370.694 47.9627 335.859 38.1407C324.724 35.0009 313.495 31.9922 301.997 30.7041C267.928 26.8874 233.39 38.6421 205.062 57.9492C193.701 65.6924 182.74 75.217 177.831 88.0599C174.189 97.5887 174.215 108.079 174.566 118.274C175.777 153.436 180.289 188.391 184.795 223.283C188.319 222.648 188.667 217.775 188.156 214.232C183.471 181.691 180.843 148.855 180.295 115.984C180.142 106.766 180.19 97.3165 183.38 88.6673C189.154 73.0102 204.047 62.7704 218.66 54.7121C237.067 44.5623 257.075 36.0302 278.089 35.5773C303.544 35.0286 327.671 46.3198 349.908 58.7206C362.304 65.6341 374.874 73.3544 382.76 85.1561C389.921 95.8724 392.523 108.932 394.402 121.683C400.366 162.153 400.584 203.222 400.791 244.128C400.8 245.783 400.698 247.679 399.402 248.708C398.516 249.411 397.305 249.499 396.175 249.558L354.647 251.719C373.999 257.283 395.465 255.089 413.291 245.724L459.434 221.484C463.74 219.221 468.186 216.845 471.154 212.991C475.239 207.687 475.824 200.551 476.017 193.859C476.729 169.142 474.257 144.336 468.683 120.245C470.615 146.305 470.883 172.488 469.485 198.582C469.246 203.038 468.889 207.714 466.466 211.461C463.877 215.464 459.378 217.73 455.091 219.814L405.293 244.017C407.354 205.325 405.755 166.439 400.525 128.047C398.766 115.134 396.522 102.04 390.613 90.4245C376.648 62.9747 345.737 49.3962 317.169 37.8904C359.88 50.386 403.079 63.0882 441.504 85.5359C442.003 82.4347 439.007 79.9928 436.334 78.3439ZM595.48 196.453C597.694 202.159 600.807 208.242 606.528 210.417C607.883 210.521 608.693 208.724 608.248 207.44C607.877 206.367 607.003 205.585 606.145 204.818C606.083 204.762 606.021 204.707 605.959 204.651L605.864 204.565L605.788 204.496L605.741 204.453C605.708 204.423 605.676 204.393 605.643 204.363C602.003 200.981 600.215 196.2 598.455 191.491C598.107 190.559 597.76 189.631 597.399 188.716C595.218 183.178 591.799 177.392 586.081 175.738C582.558 174.719 578.787 175.479 575.231 176.376C555.142 181.444 536.157 190.84 519.942 203.737C512.888 209.347 505.75 217.3 507.433 226.155C508.068 229.499 509.923 232.467 511.793 235.311C515.351 240.723 519.1 246.01 523.03 251.158C524.748 253.41 526.558 255.686 528.986 257.146C533.096 259.617 538.263 259.348 542.994 258.566C567.446 254.524 588.374 239.328 608.288 224.575C609.325 223.807 610.403 222.989 610.94 221.816C611.477 220.643 611.248 219.012 610.109 218.407C608.803 217.713 607.263 218.671 606.098 219.583C587.567 234.091 567.771 248.269 544.794 253.366C540.438 254.332 535.638 254.901 531.719 252.768C528.786 251.173 526.806 248.304 524.937 245.538L513.345 228.387C512.369 226.942 511.357 225.39 511.321 223.647C511.285 221.904 512.693 220.018 514.422 220.243C530.67 222.356 546.995 223.875 563.354 224.796C564.656 224.869 566.018 224.928 567.205 224.386C568.733 223.688 569.665 222.142 570.48 220.673C577.406 208.188 582.696 194.797 586.173 180.95C590.796 184.264 592.953 189.879 595.011 195.236L595.013 195.24C595.169 195.646 595.324 196.051 595.48 196.453ZM581.18 179.854C578.084 191.435 573.505 202.618 567.589 213.043C566.598 214.791 565.497 216.591 563.763 217.606C561.556 218.898 558.811 218.655 556.27 218.371L515.798 213.855C522.513 204.982 532.488 199.223 542.455 194.275C551.889 189.591 561.575 185.413 571.456 181.764C574.584 180.609 577.865 179.49 581.18 179.854ZM357.54 426.886C358.539 436.303 359.592 445.919 363.594 454.501L357.043 396.198C356.774 393.798 356.854 390.743 359.061 389.764C360.93 411.709 363.715 433.576 367.408 455.289C367.846 457.867 363.974 459.34 361.799 457.888C359.625 456.436 358.929 453.609 358.435 451.042C354.831 432.331 352.85 413.309 352.521 394.258C347.933 395.161 344.716 399.609 343.788 404.192C342.86 408.774 343.754 413.507 344.648 418.097L353.279 462.416C354.625 469.326 355.971 476.465 354.486 483.347C348.776 457.276 344.185 430.961 340.731 404.497C296.917 431.289 240.462 436.271 192.633 417.567C182.187 413.481 171.812 408.068 164.913 399.225C159.478 392.258 156.578 383.609 155.058 374.905C149.662 343.992 160.72 312.46 175.729 284.902C176.12 284.184 176.515 283.464 176.911 282.742C182.282 272.945 187.878 262.738 187.45 251.657C187.422 250.924 187.37 250.178 187.319 249.427C187.081 245.977 186.836 242.43 188.801 239.695C191.436 244.489 192.439 250.161 191.609 255.568C236.968 253.615 282.394 253.222 327.78 254.389C328.309 256.476 325.286 257.445 323.134 257.413C280.779 256.781 238.403 257.503 196.094 259.576C194.755 259.642 193.348 259.729 192.212 260.443C191.017 261.193 190.321 262.51 189.679 263.766C177.671 287.261 165.624 311.098 159.82 336.837C156.835 350.074 155.692 364.561 161.809 376.672C164.13 381.267 167.412 385.325 171.077 388.94C190.751 408.345 220.212 414.295 247.843 413.831C265.478 413.534 283.074 410.999 300.075 406.306C318.099 401.33 336.074 393.486 348.377 379.406C355.601 371.137 360.512 361.123 364.812 351.02C373.023 331.729 379.321 311.624 383.583 291.096C386.253 291.657 386.29 295.432 385.674 298.089C378.053 330.965 369.196 366.007 344.096 388.566C321.426 408.94 289.481 415.258 259.049 416.963C241.47 417.947 223.614 417.639 206.587 413.158C189.561 408.677 173.303 399.712 162.494 385.815C165.647 397.835 176.326 406.414 187.444 411.966C216.635 426.543 251.107 425.772 283.34 420.705C304.812 417.33 326.851 411.791 343.561 397.891C357.844 386.01 366.947 369.041 373.798 351.772C381.382 332.656 386.643 312.62 389.429 292.245C391.163 291.148 392.449 294.214 392.229 296.254C388.473 331.174 375.094 365.011 353.953 393.057L357.54 426.886ZM337.24 486.601C335.377 483.455 334.178 479.919 333.743 476.29L331.067 485.359L324.313 459.602C323.789 457.604 322.514 455.103 320.494 455.533C318.53 455.95 318.309 458.646 318.602 460.632C320.073 470.624 322.879 480.419 326.922 489.674L319.74 483.372C319.391 486.372 320.18 489.492 321.915 491.964C318.174 489.209 313.156 488.27 308.672 489.486C311.877 493.938 316.227 497.558 321.187 499.899L315.119 491.428C320.024 494.26 325.163 496.686 330.467 498.675L325.325 492.227L331.679 493.988C326.817 482.928 321.864 471.446 321.982 459.365C323.822 469.193 326.516 478.861 330.023 488.224C330.618 489.811 331.278 491.451 332.544 492.577C333.81 493.703 335.868 494.127 337.194 493.073C338.225 492.253 338.526 490.84 338.76 489.544L341.621 473.674L344.765 493.355C347.148 487.336 354.898 485.827 361.372 485.787C369.92 485.733 378.533 486.675 387.123 487.614H387.123H387.123H387.124H387.124H387.124H387.124H387.125H387.125C402.61 489.308 418.024 490.993 432.861 486.828C432.425 489.122 431.663 491.354 430.605 493.435C442.577 491.692 454.692 490.927 466.788 491.15C471.897 491.245 477.021 491.513 482.145 491.782H482.146H482.146H482.147H482.147H482.147H482.148H482.148H482.149C495.695 492.493 509.242 493.204 522.515 490.689L434.425 489.915C436.079 489.819 437.347 487.895 436.783 486.337C436.219 484.778 434.014 484.111 432.681 485.096C431.815 482.342 427.921 481.117 425.634 482.88C426.96 478.792 429.582 475.135 433.028 472.568C429.138 472.359 425.188 473.55 422.062 475.873L431.537 432.022C430.735 431.332 429.399 431.796 428.807 432.671C428.222 433.538 428.156 434.641 428.094 435.686L428.093 435.719C427.205 450.692 421.925 465.379 413.075 477.49L409.6 467.436L404.619 479.446C402.362 477.697 399.159 477.256 396.513 478.329C397.189 480.897 399.243 483.058 401.774 483.862L402.953 480.704L410.734 485.916C407.76 482.799 407.116 477.701 409.221 473.942L413.929 481.84L423.057 463.789C423.108 471.037 420.001 477.887 416.957 484.465C420.266 481.873 423.111 478.69 425.316 475.111C427.444 478.879 425.119 483.933 421.418 486.176C417.717 488.42 413.139 488.542 408.815 488.359C402.217 488.08 395.569 487.251 388.929 486.424L388.928 486.423C374.016 484.565 359.146 482.711 344.981 487.101L342.938 468.268C339.818 473.906 337.866 480.187 337.24 486.601ZM426.114 487.103C425.794 486.721 425.796 486.107 426.118 485.727L426.375 485.824C426.808 484.789 428.627 484.873 428.962 485.945C428.122 486.55 427.137 486.951 426.114 487.103ZM474.24 287.002C463.981 281.817 451.772 283.216 440.384 284.777C437.166 285.218 433.885 285.681 430.97 287.114C428.055 288.547 425.517 291.142 425.014 294.35C397.2 290.878 370.547 278.635 349.791 259.799C345.286 255.711 340.689 249.889 342.715 244.153C343.352 242.35 344.591 240.828 345.879 239.416C355.557 228.806 368.899 222.425 381.887 216.3C367.167 217.591 353.042 224.751 343.299 235.861C341.066 238.408 339.007 241.252 338.238 244.551C336.339 252.695 342.665 260.335 348.995 265.798C369.195 283.232 394.602 294.553 421.072 297.915C422.659 298.117 422.741 300.349 422.596 301.942C421.951 309.03 425.814 315.947 431.169 320.635C436.525 325.323 443.232 328.139 449.888 330.66C470.5 338.467 491.891 344.217 513.639 347.797C515.076 348.033 517.05 347.921 517.352 346.497C512.333 343.177 506.293 341.912 500.386 340.675C500.067 340.608 499.749 340.542 499.43 340.475C484.455 337.322 469.681 333.216 455.226 328.19C449.296 326.127 443.352 323.876 438.181 320.314C433.011 316.753 428.62 311.722 426.966 305.665C426.15 302.675 427.258 298.21 430.335 298.586C442.865 300.119 455.74 301.632 467.975 298.524C470.744 297.82 473.63 296.76 475.318 294.455C477.005 292.15 476.79 288.291 474.24 287.002ZM442.634 295.283C438.333 294.542 433.938 294.344 429.588 294.694C431.702 290.678 436.865 289.621 441.362 289.009C451.134 287.678 461.311 286.381 470.674 289.479C471.293 289.684 471.953 289.945 472.288 290.504C472.728 291.24 472.407 292.242 471.781 292.828C471.155 293.415 470.302 293.681 469.476 293.911C460.776 296.343 451.536 296.815 442.634 295.283ZM300.302 497.858C307.5 497.657 314.742 499.248 321.192 502.449C319.468 504.927 316.003 505.274 312.986 505.389L234.136 508.381C233.413 508.292 233.277 507.175 233.789 506.658C234.301 506.14 235.101 506.073 235.828 506.038L312.801 502.284C308.354 501.876 304.015 500.339 300.302 497.858ZM148.557 237.085C147.434 242.458 151.98 248.192 157.455 248.598C148.502 262.091 132.375 268.749 116.88 273.45C107.209 276.383 96.481 278.792 87.2614 274.653C86.1172 275.352 87.3373 277.074 88.5453 277.656C97.5173 281.979 108.154 279.57 117.698 276.722C131.693 272.545 146.12 267.147 155.643 256.073C156.033 255.62 156.421 255.153 156.812 254.683L156.812 254.683L156.813 254.682C159.264 251.737 161.82 248.665 165.505 247.983C177.37 245.789 187.252 238.357 197.016 231.014L197.017 231.014L197.017 231.013L197.018 231.013L197.018 231.013C199.232 229.348 201.44 227.687 203.664 226.093C217.184 216.404 232.179 208.776 247.971 203.555C249.366 203.094 251.062 202.238 250.938 200.775C231.358 202.572 214.243 214.248 198.462 225.977L197.936 226.368C187.211 234.342 176.003 242.674 162.806 244.65C167.117 241.25 166.207 233.394 161.343 230.847C156.48 228.3 149.681 231.711 148.557 237.085ZM152.211 240.369C151.331 237.762 152.69 234.661 155.104 233.34C155.789 232.965 156.555 232.716 157.337 232.715C159.914 232.713 161.797 235.47 161.814 238.048C161.831 240.625 160.524 243.003 159.254 245.246C156.283 244.792 153.173 243.216 152.211 240.369ZM445.203 182.927C444.473 182.114 444.697 181.02 444.93 179.886C445.094 179.085 445.262 178.264 445.101 177.509C444.96 176.855 444.579 176.298 444.196 175.739C443.857 175.244 443.517 174.748 443.343 174.182C443.383 173.434 444.383 173.05 445.065 173.36C445.747 173.671 446.128 174.403 446.366 175.113C447.234 177.705 446.788 180.7 445.203 182.927ZM379.196 126.053C381.021 121.727 384.638 117.891 389.249 117.013C390.742 116.729 390.695 114.269 389.388 113.495C388.08 112.722 386.401 113.179 385.029 113.832C378.64 116.873 374.606 123.568 373.025 130.465C371.445 137.363 371.967 144.546 372.499 151.602L375.324 189.108C375.42 190.384 375.537 191.723 376.247 192.786C377.693 194.953 380.795 195.021 383.394 194.856L396.552 194.02C393.628 191.728 389.703 190.763 386.05 191.438C383.916 191.832 381.773 190.425 380.642 188.573C379.512 186.721 379.181 184.505 378.9 182.354C377.067 168.277 376.394 154.05 376.891 139.864C377.056 135.172 377.372 130.378 379.196 126.053ZM412.793 458.971C412.045 459.514 411.296 458.279 411.187 457.362C406.103 414.619 405.336 371.495 404.575 328.458L404.061 299.444C404.047 298.618 404.059 297.712 404.59 297.079C405.504 295.989 407.427 296.489 408.226 297.667C409.025 298.844 409.026 300.369 408.999 301.792C408.216 344.143 408.73 386.576 412.785 428.74C412.835 429.252 412.885 429.766 412.934 430.28V430.28C413.864 439.858 414.808 449.58 412.793 458.971ZM370.518 189.547C369.404 188.936 368.03 189.282 366.812 189.642C310.44 206.315 254.196 223.507 198.781 243.129C197.744 243.496 196.558 244.025 196.32 245.099C196.068 246.237 197.139 247.324 198.285 247.535C199.431 247.746 200.59 247.336 201.684 246.934C257.219 226.504 313.589 208.347 370.608 192.523C371.832 192.183 371.632 190.159 370.518 189.547Z" fill="#00160A"/>
<path fill-rule="evenodd" clip-rule="evenodd" d="M571.366 444.587C570.053 445.164 568.632 445.701 567.22 445.458C565.807 445.215 564.485 443.888 564.769 442.483C567.363 429.636 564.106 415.724 556.078 405.364C553.264 401.734 549.914 398.539 547.173 394.854C545.445 392.531 543.908 389.611 544.784 386.852C546.031 382.927 551.052 381.972 555.161 381.692C564.713 381.041 574.266 380.39 583.818 379.739C588.219 379.439 593.289 379.394 596.227 382.685C604.406 391.846 620.347 392.462 629.208 383.958C630.579 382.642 632.305 385.262 632.251 387.161C632.08 393.134 629.618 399.013 625.482 403.326C624.507 404.343 623.259 405.34 621.856 405.194C620.454 405.048 619.42 403.035 620.538 402.176C622.937 400.334 625.379 398.445 627.061 395.931C628.743 393.417 629.558 390.122 628.412 387.323C622.241 395.129 616.012 402.889 609.724 410.601C598.822 423.972 587.162 437.649 571.366 444.587ZM588.596 405.241C587.027 405.675 585.353 405.341 583.786 404.899C572.511 401.713 562.125 392.904 550.592 394.966C564.039 405.796 571.179 423.955 568.709 441.044C577.569 439.147 584.566 432.532 590.842 425.996C600.13 416.321 608.95 406.196 617.259 395.669C611.287 395.619 605.337 393.897 600.262 390.747C593.993 392.298 594.82 403.519 588.596 405.241ZM596.784 387.453C593.049 383.05 586.337 383.186 580.585 383.692C573.083 384.351 565.581 385.009 558.08 385.668C555.034 385.936 551.536 386.47 549.948 389.083C562.932 391.801 575.591 396.071 587.569 401.772C589.11 396.933 592.197 392.599 596.268 389.563C596.726 389.222 597.25 388.783 597.189 388.216C597.158 387.925 596.973 387.676 596.784 387.453V387.453Z" fill="#FFB61D"/>
<path fill-rule="evenodd" clip-rule="evenodd" d="M40.6081 282.457C29.3088 277.939 15.8435 279.279 5.65654 285.936C4.67032 286.58 3.25241 285.862 2.76418 284.79C2.27596 283.718 2.45858 282.47 2.70831 281.319C5.96183 266.319 18.9229 254.842 33.3368 249.567C47.7506 244.293 63.5169 244.278 78.839 245.18C80.3593 245.269 81.9484 245.388 83.2452 246.187C84.5421 246.985 85.4146 248.693 84.7682 250.072C78.7409 262.93 74.2006 276.484 71.2666 290.378C70.7909 292.631 68.4606 294.126 66.1655 294.314C63.8705 294.502 61.6217 293.654 59.5389 292.671C53.048 289.611 47.2714 285.122 40.6081 282.457ZM41.8997 267.28C40.8927 268.098 39.3187 267.666 38.3712 266.78C37.4236 265.893 36.8837 264.667 36.1389 263.604C32.1437 257.905 22.9757 258.378 17.5413 262.726C12.1069 267.075 9.47722 273.945 7.08257 280.48C23.0257 273.555 42.6624 276.04 56.3777 286.719C58.2503 288.177 60.1084 289.82 62.4143 290.381C64.7202 290.942 67.6252 289.934 68.2092 287.633C71.3295 275.345 75.1746 263.24 79.7178 251.404C71.0004 262.239 52.6933 258.511 41.8997 267.28ZM38.4305 260.732C39.3258 261.857 40.9513 262.155 42.3664 261.901C43.7814 261.647 45.067 260.943 46.3855 260.37C50.9249 258.396 55.9526 257.956 60.8193 257.054C65.686 256.152 70.7057 254.625 74.1318 251.052C66.4018 251.029 58.6719 251.006 50.942 250.983C43.1737 250.959 34.8026 251.124 28.5619 255.75C32.361 255.889 36.063 257.757 38.4305 260.732Z" fill="#FFB61D"/>
<path fill-rule="evenodd" clip-rule="evenodd" d="M403.627 281.421C403.609 274.622 403.591 267.823 403.572 261.024C403.567 259.071 403.562 257.119 403.557 255.166C403.553 253.819 403.779 252.135 405.059 251.716C406.026 251.399 407.092 252.095 407.544 253.007C407.997 253.919 407.992 254.982 407.976 256.001C407.835 265.489 407.694 274.977 407.553 284.466C407.532 285.83 407.304 287.509 406.026 287.988C403.895 286.781 403.634 283.87 403.627 281.421H403.627Z" fill="#00160A"/>
<path fill-rule="evenodd" clip-rule="evenodd" d="M390.053 275.129C389.069 275.56 388.561 273.939 388.713 272.875C389.257 269.067 389.803 265.252 390.729 261.519C391.306 259.195 392.137 256.75 394.056 255.318C395.976 253.887 399.272 254.137 400.211 256.34C400.666 257.407 400.476 258.626 400.268 259.767C398.975 266.83 397.235 273.811 395.06 280.655C394.968 280.945 394.867 281.248 394.647 281.459C394.112 281.972 393.146 281.627 392.775 280.985C392.405 280.343 392.453 279.551 392.512 278.812C393.396 278.748 393.808 277.708 394.02 276.848C394.887 273.334 395.754 269.82 396.62 266.306C397.295 263.572 397.91 260.459 396.341 258.121C394.728 259.113 394.123 261.122 393.643 262.953C392.677 266.638 391.712 270.323 390.747 274.008C390.631 274.449 390.47 274.946 390.053 275.129L390.053 275.129Z" fill="#00160A"/>
</svg>
