<svg width="1016" height="204" viewBox="0 0 1016 204" fill="none" xmlns="http://www.w3.org/2000/svg">
<path d="M523.25 155.75C515.55 155.75 508.6 154.25 502.4 151.25C496.2 148.25 490.85 144.2 486.35 139.1C481.85 133.9 478.35 128.1 475.85 121.7C473.45 115.2 472.25 108.55 472.25 101.75C472.25 94.65 473.55 87.9 476.15 81.5C478.75 75 482.35 69.25 486.95 64.25C491.55 59.15 496.95 55.15 503.15 52.25C509.45 49.25 516.25 47.75 523.55 47.75C531.15 47.75 538.05 49.3 544.25 52.4C550.55 55.5 555.9 59.65 560.3 64.85C564.8 70.05 568.25 75.85 570.65 82.25C573.15 88.65 574.4 95.2 574.4 101.9C574.4 109 573.1 115.8 570.5 122.3C568 128.7 564.45 134.45 559.85 139.55C555.25 144.55 549.8 148.5 543.5 151.4C537.3 154.3 530.55 155.75 523.25 155.75ZM489.35 101.75C489.35 106.75 490.15 111.6 491.75 116.3C493.35 121 495.6 125.2 498.5 128.9C501.5 132.5 505.1 135.35 509.3 137.45C513.5 139.55 518.2 140.6 523.4 140.6C528.8 140.6 533.6 139.5 537.8 137.3C542 135.1 545.5 132.15 548.3 128.45C551.2 124.65 553.4 120.45 554.9 115.85C556.4 111.15 557.15 106.45 557.15 101.75C557.15 96.75 556.35 91.95 554.75 87.35C553.25 82.65 551 78.5 548 74.9C545 71.2 541.4 68.3 537.2 66.2C533.1 64.1 528.5 63.05 523.4 63.05C518 63.05 513.2 64.15 509 66.35C504.8 68.55 501.25 71.5 498.35 75.2C495.45 78.9 493.2 83.05 491.6 87.65C490.1 92.25 489.35 96.95 489.35 101.75ZM584.743 115.85C584.743 108.35 586.243 101.55 589.243 95.45C592.343 89.25 596.543 84.35 601.843 80.75C607.143 77.05 613.243 75.2 620.143 75.2C626.143 75.2 631.543 76.75 636.343 79.85C641.243 82.95 645.043 86.8 647.743 91.4V45.5H664.243V136.4C664.243 138.3 664.593 139.65 665.293 140.45C665.993 141.25 667.143 141.7 668.743 141.8V155C665.643 155.5 663.243 155.75 661.543 155.75C658.443 155.75 655.793 154.85 653.593 153.05C651.493 151.25 650.393 149.1 650.293 146.6L650.143 140.75C647.143 145.75 643.093 149.65 637.993 152.45C632.893 155.15 627.593 156.5 622.093 156.5C616.693 156.5 611.693 155.45 607.093 153.35C602.593 151.25 598.643 148.3 595.243 144.5C591.943 140.7 589.343 136.35 587.443 131.45C585.643 126.55 584.743 121.35 584.743 115.85ZM647.743 126.8V106.25C646.643 103.05 644.843 100.2 642.343 97.7C639.943 95.1 637.193 93.05 634.093 91.55C631.093 90.05 628.093 89.3 625.093 89.3C621.593 89.3 618.393 90.05 615.493 91.55C612.693 93.05 610.243 95.05 608.143 97.55C606.143 100.05 604.593 102.9 603.493 106.1C602.393 109.3 601.843 112.65 601.843 116.15C601.843 119.75 602.443 123.15 603.643 126.35C604.843 129.45 606.543 132.25 608.743 134.75C611.043 137.15 613.643 139.05 616.543 140.45C619.543 141.75 622.793 142.4 626.293 142.4C628.493 142.4 630.693 142 632.893 141.2C635.193 140.4 637.343 139.3 639.343 137.9C641.443 136.5 643.193 134.85 644.593 132.95C646.093 131.05 647.143 129 647.743 126.8ZM679.501 132.05C679.501 127.05 680.901 122.7 683.701 119C686.601 115.2 690.551 112.3 695.551 110.3C700.551 108.2 706.351 107.15 712.951 107.15C716.451 107.15 720.001 107.4 723.601 107.9C727.301 108.4 730.551 109.2 733.351 110.3V105.35C733.351 99.85 731.701 95.55 728.401 92.45C725.101 89.35 720.351 87.8 714.151 87.8C709.751 87.8 705.601 88.6 701.701 90.2C697.801 91.7 693.651 93.85 689.251 96.65L683.701 85.55C688.901 82.05 694.101 79.45 699.301 77.75C704.601 76.05 710.151 75.2 715.951 75.2C726.451 75.2 734.701 78 740.701 83.6C746.801 89.1 749.851 96.95 749.851 107.15V136.4C749.851 138.3 750.151 139.65 750.751 140.45C751.451 141.25 752.601 141.7 754.201 141.8V155C752.701 155.3 751.351 155.5 750.151 155.6C748.951 155.7 747.951 155.75 747.151 155.75C743.651 155.75 741.001 154.9 739.201 153.2C737.401 151.5 736.351 149.5 736.051 147.2L735.601 142.7C732.201 147.1 727.851 150.5 722.551 152.9C717.251 155.3 711.901 156.5 706.501 156.5C701.301 156.5 696.651 155.45 692.551 153.35C688.451 151.15 685.251 148.2 682.951 144.5C680.651 140.8 679.501 136.65 679.501 132.05ZM729.451 136.85C730.651 135.55 731.601 134.25 732.301 132.95C733.001 131.65 733.351 130.5 733.351 129.5V120.5C730.551 119.4 727.601 118.6 724.501 118.1C721.401 117.5 718.351 117.2 715.351 117.2C709.351 117.2 704.451 118.4 700.651 120.8C696.951 123.2 695.101 126.5 695.101 130.7C695.101 133 695.701 135.2 696.901 137.3C698.201 139.4 700.001 141.1 702.301 142.4C704.701 143.7 707.651 144.35 711.151 144.35C714.751 144.35 718.201 143.65 721.501 142.25C724.801 140.85 727.451 139.05 729.451 136.85ZM889.869 155H873.369V111.05C873.369 103.75 872.169 98.4 869.769 95C867.369 91.6 863.869 89.9 859.269 89.9C854.669 89.9 850.369 91.65 846.369 95.15C842.469 98.55 839.719 103 838.119 108.5V155H821.619V111.05C821.619 103.75 820.419 98.4 818.019 95C815.619 91.6 812.169 89.9 807.669 89.9C803.069 89.9 798.769 91.6 794.769 95C790.869 98.4 788.069 102.85 786.369 108.35V155H769.869V76.55H784.869V92.3C787.969 86.8 792.019 82.6 797.019 79.7C802.119 76.7 807.919 75.2 814.419 75.2C820.919 75.2 826.019 76.9 829.719 80.3C833.519 83.7 835.869 87.95 836.769 93.05C840.169 87.25 844.319 82.85 849.219 79.85C854.219 76.75 859.919 75.2 866.319 75.2C870.919 75.2 874.769 76.05 877.869 77.75C880.969 79.45 883.369 81.8 885.069 84.8C886.769 87.7 887.969 91.1 888.669 95C889.469 98.8 889.869 102.85 889.869 107.15V155ZM903.182 132.05C903.182 127.05 904.582 122.7 907.382 119C910.282 115.2 914.232 112.3 919.232 110.3C924.232 108.2 930.032 107.15 936.632 107.15C940.132 107.15 943.682 107.4 947.282 107.9C950.982 108.4 954.232 109.2 957.032 110.3V105.35C957.032 99.85 955.382 95.55 952.082 92.45C948.782 89.35 944.032 87.8 937.832 87.8C933.432 87.8 929.282 88.6 925.382 90.2C921.482 91.7 917.332 93.85 912.932 96.65L907.382 85.55C912.582 82.05 917.782 79.45 922.982 77.75C928.282 76.05 933.832 75.2 939.632 75.2C950.132 75.2 958.382 78 964.382 83.6C970.482 89.1 973.532 96.95 973.532 107.15V136.4C973.532 138.3 973.832 139.65 974.432 140.45C975.132 141.25 976.282 141.7 977.882 141.8V155C976.382 155.3 975.032 155.5 973.832 155.6C972.632 155.7 971.632 155.75 970.832 155.75C967.332 155.75 964.682 154.9 962.882 153.2C961.082 151.5 960.032 149.5 959.732 147.2L959.282 142.7C955.882 147.1 951.532 150.5 946.232 152.9C940.932 155.3 935.582 156.5 930.182 156.5C924.982 156.5 920.332 155.45 916.232 153.35C912.132 151.15 908.932 148.2 906.632 144.5C904.332 140.8 903.182 136.65 903.182 132.05ZM953.132 136.85C954.332 135.55 955.282 134.25 955.982 132.95C956.682 131.65 957.032 130.5 957.032 129.5V120.5C954.232 119.4 951.282 118.6 948.182 118.1C945.082 117.5 942.032 117.2 939.032 117.2C933.032 117.2 928.132 118.4 924.332 120.8C920.632 123.2 918.782 126.5 918.782 130.7C918.782 133 919.382 135.2 920.582 137.3C921.882 139.4 923.682 141.1 925.982 142.4C928.382 143.7 931.332 144.35 934.832 144.35C938.432 144.35 941.882 143.65 945.182 142.25C948.482 140.85 951.132 139.05 953.132 136.85ZM992.8 155V135.8H1006.45V155H992.8Z" fill="black"/>
<path d="M9.15 110.55V62.55H25.65V107.25C25.65 114.25 26.9 119.55 29.4 123.15C32 126.65 35.75 128.4 40.65 128.4C43.75 128.4 46.75 127.75 49.65 126.45C52.65 125.15 55.35 123.25 57.75 120.75C60.25 118.15 62.25 115.05 63.75 111.45V62.55H80.25V122.4C80.25 124.3 80.6 125.65 81.3 126.45C82 127.25 83.15 127.7 84.75 127.8V141C83.05 141.3 81.65 141.5 80.55 141.6C79.45 141.7 78.4 141.75 77.4 141.75C74.4 141.75 71.9 140.95 69.9 139.35C67.9 137.65 66.75 135.5 66.45 132.9L66.15 125.1C62.65 130.8 58.1 135.15 52.5 138.15C46.9 141.05 40.75 142.5 34.05 142.5C25.85 142.5 19.65 139.8 15.45 134.4C11.25 129 9.15 121.05 9.15 110.55ZM129.206 142.5C122.606 142.5 116.356 141.45 110.456 139.35C104.556 137.15 99.5063 133.9 95.3063 129.6L101.456 118.5C105.956 122.5 110.456 125.4 114.956 127.2C119.556 129 124.106 129.9 128.606 129.9C133.206 129.9 136.956 129.05 139.856 127.35C142.756 125.55 144.206 122.95 144.206 119.55C144.206 117.05 143.456 115.2 141.956 114C140.456 112.8 138.256 111.75 135.356 110.85C132.556 109.95 129.156 108.95 125.156 107.85C119.556 106.15 114.856 104.4 111.056 102.6C107.256 100.7 104.406 98.4 102.506 95.7C100.606 93 99.6563 89.55 99.6563 85.35C99.6563 80.25 100.956 75.9 103.556 72.3C106.156 68.7 109.756 65.95 114.356 64.05C119.056 62.15 124.456 61.2 130.556 61.2C136.256 61.2 141.506 62.1 146.306 63.9C151.206 65.6 155.506 68.3 159.206 72L152.156 82.95C148.656 79.75 145.056 77.4 141.356 75.9C137.756 74.4 133.856 73.65 129.656 73.65C127.256 73.65 124.956 73.95 122.756 74.55C120.556 75.05 118.706 76.05 117.206 77.55C115.806 78.95 115.106 80.95 115.106 83.55C115.106 85.65 115.706 87.35 116.906 88.65C118.106 89.95 119.906 91.05 122.306 91.95C124.706 92.85 127.656 93.85 131.156 94.95C137.256 96.75 142.456 98.55 146.756 100.35C151.056 102.05 154.356 104.3 156.656 107.1C159.056 109.8 160.256 113.55 160.256 118.35C160.256 125.95 157.406 131.9 151.706 136.2C146.106 140.4 138.606 142.5 129.206 142.5ZM210.538 142.5C204.438 142.5 198.888 141.45 193.888 139.35C188.988 137.15 184.738 134.2 181.138 130.5C177.538 126.7 174.738 122.4 172.738 117.6C170.838 112.7 169.888 107.5 169.888 102C169.888 94.6 171.588 87.85 174.988 81.75C178.388 75.55 183.138 70.6 189.238 66.9C195.338 63.1 202.488 61.2 210.688 61.2C218.888 61.2 225.938 63.1 231.838 66.9C237.838 70.6 242.488 75.5 245.788 81.6C249.088 87.7 250.738 94.25 250.738 101.25C250.738 102.45 250.688 103.6 250.588 104.7C250.488 105.7 250.388 106.55 250.288 107.25H187.438C187.738 111.85 188.988 115.9 191.188 119.4C193.488 122.8 196.388 125.5 199.888 127.5C203.388 129.4 207.138 130.35 211.138 130.35C215.538 130.35 219.688 129.25 223.588 127.05C227.588 124.85 230.288 121.95 231.688 118.35L245.788 122.4C244.088 126.2 241.488 129.65 237.988 132.75C234.588 135.75 230.538 138.15 225.838 139.95C221.138 141.65 216.038 142.5 210.538 142.5ZM186.988 96.3H234.388C234.088 91.8 232.788 87.85 230.488 84.45C228.288 80.95 225.438 78.25 221.938 76.35C218.538 74.35 214.738 73.35 210.538 73.35C206.438 73.35 202.638 74.35 199.138 76.35C195.738 78.25 192.938 80.95 190.738 84.45C188.538 87.85 187.288 91.8 186.988 96.3Z" fill="black"/>
<path d="M365.002 200.358C419.322 200.358 463.358 156.322 463.358 102.002C463.358 47.6811 419.322 3.64551 365.002 3.64551C310.681 3.64551 266.646 47.6811 266.646 102.002C266.646 156.322 310.681 200.358 365.002 200.358Z" fill="#F7B239"/>
<path d="M313.326 153.675C277.944 118.293 275.156 62.6616 304.959 24.0864C301.658 26.6368 298.481 29.4247 295.453 32.4528C257.043 70.8626 257.043 133.137 295.453 171.547C333.863 209.957 396.137 209.957 434.547 171.547C437.575 168.519 440.363 165.342 442.914 162.041C404.339 191.845 348.707 189.056 313.326 153.675Z" fill="#E09B2D"/>
<path d="M365 204C308.757 204 263 158.243 263 102C263 45.757 308.757 0 365 0C421.243 0 467 45.757 467 102C467 158.243 421.243 204 365 204ZM365 7.29101C312.778 7.29101 270.291 49.7772 270.291 102C270.291 154.224 312.777 196.709 365 196.709C417.223 196.709 459.709 154.223 459.709 102C459.709 49.7776 417.222 7.29101 365 7.29101Z" fill="black"/>
<path d="M365 125.289C348.461 125.289 331.922 118.993 319.332 106.402C317.908 104.979 317.908 102.671 319.332 101.247C320.755 99.8233 323.064 99.8233 324.487 101.247C346.826 123.586 383.174 123.585 405.512 101.247C406.936 99.8233 409.244 99.8233 410.668 101.247C412.091 102.671 412.091 104.978 410.668 106.402C398.077 118.993 381.539 125.289 365 125.289Z" fill="black"/>
<path d="M365.002 141.097C359.123 141.097 353.245 140.296 347.531 138.694C345.592 138.151 344.461 136.139 345.004 134.2C345.548 132.261 347.562 131.13 349.499 131.674C359.641 134.517 370.363 134.517 380.506 131.674C382.444 131.129 384.457 132.261 385 134.2C385.543 136.138 384.413 138.151 382.474 138.694C376.758 140.296 370.88 141.097 365.002 141.097Z" fill="#E09B2D"/>
<path d="M339.951 80.7436C337.938 80.7436 336.306 79.1112 336.306 77.0979C336.306 67.3139 328.346 59.3535 318.561 59.3535C308.777 59.3535 300.817 67.3135 300.817 77.0979C300.817 79.1112 299.184 80.7436 297.171 80.7436C295.158 80.7436 293.525 79.1112 293.525 77.0979C293.525 63.2937 304.756 52.0625 318.561 52.0625C332.365 52.0625 343.596 63.2933 343.596 77.0979C343.597 79.1116 341.965 80.7436 339.951 80.7436Z" fill="black"/>
<path d="M432.828 80.7436C430.815 80.7436 429.183 79.1112 429.183 77.0979C429.183 67.3139 421.223 59.3535 411.438 59.3535C401.654 59.3535 393.694 67.3135 393.694 77.0979C393.694 79.1112 392.061 80.7436 390.048 80.7436C388.035 80.7436 386.402 79.1112 386.402 77.0979C386.402 63.2937 397.633 52.0625 411.438 52.0625C425.242 52.0625 436.473 63.2933 436.473 77.0979C436.474 79.1116 434.842 80.7436 432.828 80.7436Z" fill="black"/>
<path d="M303.072 106.736C308.379 106.736 312.682 102.434 312.682 97.1265C312.682 91.8191 308.379 87.5166 303.072 87.5166C297.764 87.5166 293.462 91.8191 293.462 97.1265C293.462 102.434 297.764 106.736 303.072 106.736Z" fill="#F95428"/>
<path d="M426.927 106.736C432.235 106.736 436.537 102.434 436.537 97.1265C436.537 91.8191 432.235 87.5166 426.927 87.5166C421.62 87.5166 417.317 91.8191 417.317 97.1265C417.317 102.434 421.62 106.736 426.927 106.736Z" fill="#F95428"/>
</svg>
